<svg xmlns="http://www.w3.org/2000/svg" data-name="Layer 1" viewBox="0 0 120 120"><defs><linearGradient id="a" x1="-392" x2="-272" y1="-764" y2="-764" gradientTransform="rotate(-90 276 -548)" gradientUnits="userSpaceOnUse"><stop offset="0" stop-color="#fd355a"/><stop offset="1" stop-color="#fd5163"/></linearGradient><radialGradient id="b" cx="-400.171" cy="-984.067" r="1.587" gradientTransform="matrix(0 31.8923 31.8923 0 31421.78 12852.762)" gradientUnits="userSpaceOnUse"><stop offset="0" stop-color="#7470f9"/><stop offset="1" stop-color="#7a70fe" stop-opacity="0"/></radialGradient><radialGradient id="c" cx="-489.182" cy="-1019.984" r="1.281" gradientTransform="scale(-31.8923 31.8923) rotate(-74.462 426.955 -829.031)" gradientUnits="userSpaceOnUse"><stop offset="0" stop-color="#4ca3f8"/><stop offset=".362" stop-color="#4ca4f7"/><stop offset="1" stop-color="#4aa2f9" stop-opacity="0"/></radialGradient><linearGradient id="d" x1="-418.42" x2="-418.034" y1="-1040.402" y2="-1041.278" gradientTransform="matrix(31.8923 0 0 -39.8681 13392.678 -41444.467)" gradientUnits="userSpaceOnUse"><stop offset="0" stop-color="#ff6380"/><stop offset="1" stop-color="#f65e79" stop-opacity="0"/></linearGradient></defs><path fill="url(#a)" fill-rule="evenodd" d="M94,120H26A25.9482,25.9482,0,0,1,0,94V26A25.9482,25.9482,0,0,1,26,0H94a25.9482,25.9482,0,0,1,26,26V94A25.9482,25.9482,0,0,1,94,120Z"/><g data-name="Home-Screen-11&quot;"><path fill="#bb58bb" fill-rule="evenodd" d="M88,72.5V76a37.93334,37.93334,0,0,1-.6,6.7,8.5338,8.5338,0,0,1-3.6,5.6h-.1a12.35558,12.35558,0,0,1-6.9,2.5l-1.9.2A9.53981,9.53981,0,0,1,67,87.6a8.779,8.779,0,0,1-1.4-8.8v-.1a9.24834,9.24834,0,0,1,6.5-5.8l7.5-2a4.29583,4.29583,0,0,0,3.3-4.2V61.6h0V40.1a1.61246,1.61246,0,0,0-.6-1.3,1.73546,1.73546,0,0,0-1.4-.3L48.9,45a2.37562,2.37562,0,0,0-2,2.4V81.6h0v2.5a37.93323,37.93323,0,0,1-.6,6.7,8.53375,8.53375,0,0,1-3.6,5.6h-.1a12.35561,12.35561,0,0,1-6.9,2.5l-1.8.1A9.53981,9.53981,0,0,1,26,95.6a8.779,8.779,0,0,1-1.4-8.8v-.1a9.24834,9.24834,0,0,1,6.5-5.8l7.5-2a4.29583,4.29583,0,0,0,3.3-4.2V69.6h0V29.9a3.71845,3.71845,0,0,1,3-3.6L85,19a3.14378,3.14378,0,0,1,2.1.5,2.46275,2.46275,0,0,1,.9,1.9V72.5Z"/><path fill="url(#b)" fill-rule="evenodd" d="M88,72.5V76a37.93334,37.93334,0,0,1-.6,6.7,8.5338,8.5338,0,0,1-3.6,5.6h-.1a12.35558,12.35558,0,0,1-6.9,2.5l-1.9.2A9.53981,9.53981,0,0,1,67,87.6a8.779,8.779,0,0,1-1.4-8.8v-.1a9.24834,9.24834,0,0,1,6.5-5.8l7.5-2a4.29583,4.29583,0,0,0,3.3-4.2V61.6h0V40.1a1.61246,1.61246,0,0,0-.6-1.3,1.73546,1.73546,0,0,0-1.4-.3L48.9,45a2.37562,2.37562,0,0,0-2,2.4V81.6h0v2.5a37.93323,37.93323,0,0,1-.6,6.7,8.53375,8.53375,0,0,1-3.6,5.6h-.1a12.35561,12.35561,0,0,1-6.9,2.5l-1.8.1A9.53981,9.53981,0,0,1,26,95.6a8.779,8.779,0,0,1-1.4-8.8v-.1a9.24834,9.24834,0,0,1,6.5-5.8l7.5-2a4.29583,4.29583,0,0,0,3.3-4.2V69.6h0V29.9a3.71845,3.71845,0,0,1,3-3.6L85,19a3.14378,3.14378,0,0,1,2.1.5,2.46275,2.46275,0,0,1,.9,1.9V72.5Z" data-name="path-6"/><path fill="url(#c)" fill-rule="evenodd" d="M88,72.5V76a37.93334,37.93334,0,0,1-.6,6.7,8.5338,8.5338,0,0,1-3.6,5.6h-.1a12.35558,12.35558,0,0,1-6.9,2.5l-1.9.2A9.53981,9.53981,0,0,1,67,87.6a8.779,8.779,0,0,1-1.4-8.8v-.1a9.24834,9.24834,0,0,1,6.5-5.8l7.5-2a4.29583,4.29583,0,0,0,3.3-4.2V61.6h0V40.1a1.61246,1.61246,0,0,0-.6-1.3,1.73546,1.73546,0,0,0-1.4-.3L48.9,45a2.37562,2.37562,0,0,0-2,2.4V81.6h0v2.5a37.93323,37.93323,0,0,1-.6,6.7,8.53375,8.53375,0,0,1-3.6,5.6h-.1a12.35561,12.35561,0,0,1-6.9,2.5l-1.8.1A9.53981,9.53981,0,0,1,26,95.6a8.779,8.779,0,0,1-1.4-8.8v-.1a9.24834,9.24834,0,0,1,6.5-5.8l7.5-2a4.29583,4.29583,0,0,0,3.3-4.2V69.6h0V29.9a3.71845,3.71845,0,0,1,3-3.6L85,19a3.14378,3.14378,0,0,1,2.1.5,2.46275,2.46275,0,0,1,.9,1.9V72.5Z" data-name="path-6"/><path fill="url(#d)" fill-rule="evenodd" d="M88,72.5V76a37.93334,37.93334,0,0,1-.6,6.7,8.5338,8.5338,0,0,1-3.6,5.6h-.1a12.35558,12.35558,0,0,1-6.9,2.5l-1.9.2A9.53981,9.53981,0,0,1,67,87.6a8.779,8.779,0,0,1-1.4-8.8v-.1a9.24834,9.24834,0,0,1,6.5-5.8l7.5-2a4.29583,4.29583,0,0,0,3.3-4.2V61.6h0V40.1a1.61246,1.61246,0,0,0-.6-1.3,1.73546,1.73546,0,0,0-1.4-.3L48.9,45a2.37562,2.37562,0,0,0-2,2.4V81.6h0v2.5a37.93323,37.93323,0,0,1-.6,6.7,8.53375,8.53375,0,0,1-3.6,5.6h-.1a12.35561,12.35561,0,0,1-6.9,2.5l-1.8.1A9.53981,9.53981,0,0,1,26,95.6a8.779,8.779,0,0,1-1.4-8.8v-.1a9.24834,9.24834,0,0,1,6.5-5.8l7.5-2a4.29583,4.29583,0,0,0,3.3-4.2V69.6h0V29.9a3.71845,3.71845,0,0,1,3-3.6L85,19a3.14378,3.14378,0,0,1,2.1.5,2.46275,2.46275,0,0,1,.9,1.9V72.5Z" data-name="path-6"/><path fill="#fff" fill-rule="evenodd" d="M88,72.5V76a37.93334,37.93334,0,0,1-.6,6.7,8.5338,8.5338,0,0,1-3.6,5.6h-.1a12.35558,12.35558,0,0,1-6.9,2.5l-1.9.2A9.53981,9.53981,0,0,1,67,87.6a8.779,8.779,0,0,1-1.4-8.8v-.1a9.24834,9.24834,0,0,1,6.5-5.8l7.5-2a4.29583,4.29583,0,0,0,3.3-4.2V61.6h0V40.1a1.61246,1.61246,0,0,0-.6-1.3,1.73546,1.73546,0,0,0-1.4-.3L48.9,45a2.37562,2.37562,0,0,0-2,2.4V81.6h0v2.5a37.93323,37.93323,0,0,1-.6,6.7,8.53375,8.53375,0,0,1-3.6,5.6h-.1a12.35561,12.35561,0,0,1-6.9,2.5l-1.8.1A9.53981,9.53981,0,0,1,26,95.6a8.779,8.779,0,0,1-1.4-8.8v-.1a9.24834,9.24834,0,0,1,6.5-5.8l7.5-2a4.29583,4.29583,0,0,0,3.3-4.2V69.6h0V29.9a3.71845,3.71845,0,0,1,3-3.6L85,19a3.14378,3.14378,0,0,1,2.1.5,2.46275,2.46275,0,0,1,.9,1.9V72.5Z" data-name="path-6"/></g></svg>