<svg xmlns="http://www.w3.org/2000/svg" data-name="Layer 1" viewBox="0 0 120 120"><defs><linearGradient id="a" x1="60" x2="60" y1="1.51" y2="121.36" gradientUnits="userSpaceOnUse"><stop offset="0" stop-color="#333"/><stop offset="1" stop-color="#111"/></linearGradient></defs><rect width="120" height="120" fill="url(#a)" rx="26"/><path fill="#f9f9f9" fill-rule="evenodd" d="M46.55 58.84a9.81 9.81 0 0 1 4.69-8.25 10.14 10.14 0 0 0-7.93-4.3c-3.37-.34-6.59 2-8.3 2s-4.35-1.94-7.15-1.88a10.58 10.58 0 0 0-9 5.43c-3.82 6.63-1 16.46 2.75 21.84 1.82 2.62 4 5.59 6.84 5.48s3.78-1.77 7.1-1.77 4.25 1.77 7.16 1.71 4.82-2.68 6.63-5.32a23.62 23.62 0 0 0 3-6.17A9.53 9.53 0 0 1 46.55 58.84zM41.1 42.74a9.54 9.54 0 0 0 2.25-6.93A9.72 9.72 0 0 0 37 39.1a9 9 0 0 0-2.3 6.7A8 8 0 0 0 41.1 42.74z"/><path fill="#f9f9f9" d="M72 52.85v-5H65.91v-7H60.5v7H55.78v5H60.5V71a8.13 8.13 0 0 0 8.12 8.12h2.71V73.74H68.62A2.72 2.72 0 0 1 65.91 71V52.85zM97.3 46.45L89.18 70.83 81.05 46.45H75.63L86.47 79h5.42l10.83-32.51z"/></svg>