<svg xmlns="http://www.w3.org/2000/svg" data-name="Layer 1" viewBox="0 0 120 120"><defs><linearGradient id="a" x2="120" y1="60" y2="60" gradientUnits="userSpaceOnUse"><stop offset="0" stop-color="#fefefe"/><stop offset="1" stop-color="#fefefe"/></linearGradient><linearGradient id="b" x1="60" x2="60" y1="17.05" y2="98.62" gradientUnits="userSpaceOnUse"><stop offset="0" stop-color="#00e2f1"/><stop offset="1" stop-color="#0297d4"/></linearGradient></defs><rect width="120" height="120" fill="url(#a)" rx="26"/><path fill="url(#b)" d="M90,29H77.38a17.49,17.49,0,0,0-34.76,0H30a6,6,0,0,0-6,6V93a6,6,0,0,0,6,6H90a6,6,0,0,0,6-6V35A6,6,0,0,0,90,29ZM60,16.46A14.51,14.51,0,0,1,74.35,29H45.65A14.51,14.51,0,0,1,60,16.46Z"/><path fill="#f9f9f9" fill-rule="evenodd" d="M68.47 62A7.47 7.47 0 0 1 72 55.69a7.75 7.75 0 0 0-6-3.28c-2.57-.25-5 1.52-6.32 1.52s-3.32-1.47-5.44-1.43a8.08 8.08 0 0 0-6.84 4.13c-2.9 5-.74 12.53 2.1 16.63 1.39 2 3 4.26 5.21 4.17s2.88-1.34 5.4-1.34 3.24 1.34 5.45 1.3 3.68-2 5-4a17.85 17.85 0 0 0 2.29-4.7A7.26 7.26 0 0 1 68.47 62zM64.32 49.71A7.29 7.29 0 0 0 66 44.44a7.38 7.38 0 0 0-4.86 2.5A6.89 6.89 0 0 0 59.42 52 6.13 6.13 0 0 0 64.32 49.71z"/></svg>