<svg xmlns="http://www.w3.org/2000/svg" data-name="Layer 1" viewBox="0 0 120 120"><defs><linearGradient id="a" x1="60" x2="60" y1="16" y2="-104" gradientTransform="translate(0 104)" gradientUnits="userSpaceOnUse"><stop offset="0" stop-color="#8e8e93"/><stop offset="1" stop-color="#e5e5ea"/></linearGradient></defs><path fill="url(#a)" d="M26,0H94a25.94821,25.94821,0,0,1,26,26V94a25.94821,25.94821,0,0,1-26,26H26A25.94821,25.94821,0,0,1,0,94V26A25.94819,25.94819,0,0,1,26,0Z"/><path fill="#2e2e2f" fill-rule="evenodd" d="M35.1,36c5.9,0,7.3-4.8,8-5.9a8.15641,8.15641,0,0,1,7-4.1h20a7.92375,7.92375,0,0,1,7,4.2C77.7,31.3,79,36,85,36H98.1a6.01764,6.01764,0,0,1,6,6V85a6.01763,6.01763,0,0,1-6,6h-76a6.01763,6.01763,0,0,1-6-6V42a6.01764,6.01764,0,0,1,6-6ZM60,81A18.5,18.5,0,1,0,41.5,62.5,18.52215,18.52215,0,0,0,60,81Zm0-3A15.5,15.5,0,1,1,75.5,62.5,15.44959,15.44959,0,0,1,60,78ZM26,30h7a.94477.94477,0,0,1,1,1v3H25V31A.94478.94478,0,0,1,26,30Z"/><circle cx="82" cy="45" r="2.2" fill="#fc0"/></svg>