<svg xmlns="http://www.w3.org/2000/svg" data-name="Layer 1" viewBox="0 0 120 120"><path fill="#202021" fill-rule="evenodd" d="M0,94V26A25.94821,25.94821,0,0,1,26,0H94a25.94821,25.94821,0,0,1,26,26V94a25.94821,25.94821,0,0,1-26,26H26A26.012,26.012,0,0,1,0,94Z"/><circle cx="60.1" cy="60" r="52" fill="#f6f5f8"/><text font-family="SFProText-Medium,SF Pro Text" font-size="14" font-weight="500" style="isolation:isolate" transform="translate(78.596 30.001)">1</text><text font-family="SFProText-Medium,SF Pro Text" font-size="14" font-weight="500" style="isolation:isolate" transform="translate(93.663 45.001)">2</text><text font-family="SFProText-Medium,SF Pro Text" font-size="14" font-weight="500" style="isolation:isolate" transform="translate(98.491 66.001)">3</text><text font-family="SFProText-Medium,SF Pro Text" font-size="14" font-weight="500" style="isolation:isolate" transform="translate(92.362 87.001)">4</text><text font-family="SFProText-Medium,SF Pro Text" font-size="14" font-weight="500" style="isolation:isolate" transform="translate(76.536 102.001)">5</text><text font-family="SFProText-Medium,SF Pro Text" font-size="14" font-weight="500" style="isolation:isolate" transform="translate(55.4 108.001)">6</text><text font-family="SFProText-Medium,SF Pro Text" font-size="14" font-weight="500" style="isolation:isolate" transform="translate(34.923 102.001)">7</text><text font-family="SFProText-Medium,SF Pro Text" font-size="14" font-weight="500" style="isolation:isolate" transform="translate(18.352 87.001)">8</text><text font-family="SFProText-Medium,SF Pro Text" font-size="14" font-weight="500" style="isolation:isolate" transform="translate(11.4 66.001)">9</text><text font-family="SFProText-Medium,SF Pro Text" font-size="14" font-weight="500" style="isolation:isolate" transform="translate(15.945 46.001)">10</text><text font-family="SFProText-Medium,SF Pro Text" font-size="14" font-weight="500" style="isolation:isolate" transform="translate(32.123 30.001)">11</text><text font-family="SFProText-Medium,SF Pro Text" font-size="14" font-weight="500" style="isolation:isolate" transform="translate(52.19 23.001)">12</text><path fill-rule="evenodd" d="M60.1,59.5h0a.94913.94913,0,0,1,1.2.7l12.5,44.3a.94914.94914,0,0,1-.7,1.2h0a.94914.94914,0,0,1-1.2-.7L59.4,60.7A.88769.88769,0,0,1,60.1,59.5Z"/><path fill="#fe9124" fill-rule="evenodd" d="M72,15.5a.54834.54834,0,0,1,.4.6L58.7,67.3a.54834.54834,0,0,1-.6.4c-.3,0-.4-.3-.4-.6L71.4,15.9A.44065.44065,0,0,1,72,15.5Z" data-name="Rectangle-9"/><path fill-rule="evenodd" d="M29.7,51.8h0a.94915.94915,0,0,1,1.2-.7l29,7.8a.94915.94915,0,0,1,.7,1.2h0a.94915.94915,0,0,1-1.2.7L30.4,53A1.08613,1.08613,0,0,1,29.7,51.8Z" data-name="Rectangle-9"/><circle cx="60.1" cy="60" r="3"/></svg>