<svg xmlns="http://www.w3.org/2000/svg" xmlns:xlink="http://www.w3.org/1999/xlink" data-name="Layer 1" viewBox="0 0 120 120"><defs><linearGradient id="b" x1="113.957" x2="113.957" y1="32.807" y2="42.245" gradientUnits="userSpaceOnUse"><stop offset="0" stop-opacity=".3"/><stop offset="1" stop-color="#fff" stop-opacity="0"/></linearGradient><linearGradient id="a" x1="113.958" x2="113.958" y1="62.639" y2="72.831" gradientUnits="userSpaceOnUse"><stop offset="0" stop-opacity=".2"/><stop offset="1" stop-color="#fff" stop-opacity="0"/></linearGradient><linearGradient id="c" x1="113.957" x2="113.957" y1="92.875" y2="100.46" xlink:href="#a"/><linearGradient id="d" x1="107.918" x2="113.918" y1="60" y2="60" xlink:href="#a"/></defs><path fill="#d8d6cc" fill-rule="evenodd" d="M93.9996,120h-68a25.9482,25.9482,0,0,1-26-26V26a25.9482,25.9482,0,0,1,26-26h68a25.9482,25.9482,0,0,1,26,26V94A25.9482,25.9482,0,0,1,93.9996,120Z"/><path fill="#4cd964" fill-rule="evenodd" d="M119.99753,92.87463v1.12a25.91354,25.91354,0,0,1-8.08,18.86921,25.26921,25.26921,0,0,1-4,3.12V92.87463Z"/><rect width="12.086" height="30" x="107.914" y="62.873" fill="#ff9500"/><rect width="12.086" height="30" x="107.914" y="32.873" fill="#5ac8fa"/><rect width="12.086" height="10" x="107.914" y="32.873" fill="url(#b)"/><rect width="12.086" height="10" x="107.915" y="62.874" fill="url(#a)"/><path fill="url(#c)" fill-rule="evenodd" d="M107.914,92.87463v8h11.14344A26.10473,26.10473,0,0,0,119.9996,94V92.87463Z"/><path fill="#c4c2ba" fill-rule="evenodd" d="M119.99973,26A25.91639,25.91639,0,0,0,107.914,4.04135V32.87326h12.0857Z"/><path fill="#a9a29a" d="M56.1843,99.99754a37.51911,37.51911,0,1,0-37.48088-37.519A37.65665,37.65665,0,0,0,56.1843,99.99754Zm0-24.97444c-12.77409,0-22.29729,5.928-25.31869,11.01478a34.59459,34.59459,0,1,1,50.63738.03823C78.48159,80.95115,68.99662,75.0231,56.1843,75.0231Zm0-6.61654c7.34319,0,12.96529-6.23408,12.96529-14.38044,0-7.64913-5.73685-14.0744-12.96529-14.0744-7.19021,0-12.96537,6.42527-12.92706,14.0744C43.25724,62.17248,48.87934,68.36833,56.1843,68.40656Z"/><path fill="url(#d)" fill-rule="evenodd" d="M107.91757,115.95642a25.98648,25.98648,0,0,0,6-5.2273V9.27087a25.98668,25.98668,0,0,0-6-5.22729Z"/></svg>