<svg xmlns="http://www.w3.org/2000/svg" viewBox="0 0 120 120"><defs><linearGradient id="a" x1="64.06" x2="55.94" y1="-2.02" y2="122.02" gradientUnits="userSpaceOnUse"><stop offset="0" stop-color="#dddddb"/><stop offset="1" stop-color="#ccccca"/></linearGradient><linearGradient id="b" x1="60.28" x2="60.28" y1="60" y2="-2.94" gradientUnits="userSpaceOnUse"><stop offset=".18" stop-color="#057eee"/><stop offset=".2" stop-color="#057eef" stop-opacity=".96"/><stop offset=".46" stop-color="#037cf6" stop-opacity=".56"/><stop offset=".67" stop-color="#017bfb" stop-opacity=".26"/><stop offset=".83" stop-color="#007afe" stop-opacity=".07"/><stop offset=".9" stop-color="#007aff" stop-opacity="0"/></linearGradient></defs><g data-name="Layer 1"><rect width="120" height="120" fill="url(#a)" rx="26"/><circle cx="60.28" cy="60" r="52" fill="#38d165"/><circle cx="60.28" cy="60" r="32" fill="#46d75e"/><circle cx="60.28" cy="60" r="32" fill="#46d75e"/><circle cx="60.28" cy="60" r="14" fill="#efeff4"/><path fill="#58dc73" d="M60.28,93a33,33,0,1,1,33-33A33,33,0,0,1,60.28,93Zm0-64a31,31,0,1,0,31,31A31,31,0,0,0,60.28,29Z"/><path fill="url(#b)" d="M60.28,60l-26-45a52,52,0,0,1,52,0Z"/><circle cx="60.28" cy="60" r="14" fill="#efeff4"/><circle cx="60.28" cy="60" r="9" fill="#007aff"/></g></svg>