<svg xmlns="http://www.w3.org/2000/svg" data-name="Layer 1" viewBox="0 0 120 120"><path fill="#fff" fill-rule="evenodd" d="M94,120H26A25.94821,25.94821,0,0,1,0,94V26A25.94821,25.94821,0,0,1,26,0H94a25.94821,25.94821,0,0,1,26,26V94A25.94821,25.94821,0,0,1,94,120Z"/><path fill="#fa9013" fill-rule="evenodd" d="M85,33.9V28a2.00587,2.00587,0,0,1,2-2h5a2.00587,2.00587,0,0,1,2,2V41.1l9.8,7.8a1.24834,1.24834,0,0,1,.2,1.7,1.19325,1.19325,0,0,1-.9.5H95v40a6.01764,6.01764,0,0,1-6,6H31a6.01764,6.01764,0,0,1-6-6v-40H16.9a1.15536,1.15536,0,0,1-1.2-1.2,1.05016,1.05016,0,0,1,.5-.9L58.8,15.1a1.96111,1.96111,0,0,1,2.5,0Z"/><path fill="#ffae28" fill-rule="evenodd" d="M61.2,23.4,88.6,44.7a1.23446,1.23446,0,0,1,.4.8V89a2.00587,2.00587,0,0,1-2,2H33a2.00588,2.00588,0,0,1-2-2V45.9a.90951.90951,0,0,1,.4-.8L58.8,23.4A1.82505,1.82505,0,0,1,61.2,23.4Z"/><path fill="#ffc148" fill-rule="evenodd" d="M61.2,32.7l20.4,15a.90947.90947,0,0,1,.4.8V82a2.00587,2.00587,0,0,1-2,2H40a2.00588,2.00588,0,0,1-2-2V49.5a.90951.90951,0,0,1,.4-.8l20.4-16A2.10755,2.10755,0,0,1,61.2,32.7Z" data-name="Inner"/><path fill="#ffd361" fill-rule="evenodd" d="M61.2,41.5,74.6,51.6a.90948.90948,0,0,1,.4.8V75a2.00587,2.00587,0,0,1-2,2H47a2.00588,2.00588,0,0,1-2-2V53.1a.90951.90951,0,0,1,.4-.8L58.8,41.6A1.95584,1.95584,0,0,1,61.2,41.5Z" data-name="Inner"/><path fill="#ffe780" fill-rule="evenodd" d="M60.7,50.2l7,6.5a1.08027,1.08027,0,0,1,.3.7V69a.94477.94477,0,0,1-1,1H53a.94477.94477,0,0,1-1-1V57.4a.90786.90786,0,0,1,.3-.7l7-6.5A1.20139,1.20139,0,0,1,60.7,50.2Z" data-name="Inner"/></svg>