<svg xmlns="http://www.w3.org/2000/svg" data-name="Layer 1" viewBox="0 0 120 120"><defs><clipPath id="a"><rect width="120" height="120" fill="none" rx="26"/></clipPath></defs><rect width="120" height="120" fill="#1a1a1b" rx="26"/><g clip-path="url(#a)"><rect width="120" height="78" y="21" fill="#232323"/></g><rect width="2" height="19" x="6.99" y="26.95" fill="#fff"/><rect width="3" height="2" x="12.99" y="58.95" fill="#fc0"/><rect width="3" height="2" x="18.99" y="58.95" fill="#fc0"/><rect width="3" height="2" x="24.99" y="58.95" fill="#fc0"/><rect width="3" height="2" x="30.99" y="58.95" fill="#fc0"/><rect width="3" height="2" x="36.99" y="58.95" fill="#fc0"/><rect width="3" height="2" x="42.99" y="58.95" fill="#fc0"/><rect width="3" height="2" x="48.99" y="58.95" fill="#fc0"/><rect width="3" height="2" x="54.99" y="58.95" fill="#fc0"/><rect width="3" height="2" x="60.99" y="58.95" fill="#fc0"/><rect width="3" height="2" x="66.99" y="58.95" fill="#fc0"/><rect width="3" height="2" x="72.99" y="58.95" fill="#fc0"/><rect width="3" height="2" x="78.99" y="58.95" fill="#fc0"/><rect width="3" height="2" x="84.99" y="58.95" fill="#fc0"/><rect width="3" height="2" x="90.99" y="58.95" fill="#fc0"/><rect width="3" height="2" x="96.99" y="58.95" fill="#fc0"/><rect width="3" height="2" x="102.99" y="58.95" fill="#fc0"/><rect width="2" height="6" x="14.99" y="26.95" fill="#fff"/><rect width="2" height="10" x="23.99" y="26.95" fill="#fff"/><rect width="2" height="6" x="32.99" y="26.95" fill="#fff"/><rect width="2" height="9" x="41.99" y="26.95" fill="#fff"/><rect width="2" height="6" x="50.99" y="26.95" fill="#fff"/><rect width="2" height="9" x="58.99" y="26.95" fill="#fff"/><rect width="2" height="6" x="66.99" y="26.95" fill="#fff"/><rect width="2" height="15" x="75.99" y="26.95" fill="#fff"/><rect width="2" height="6" x="83.99" y="26.95" fill="#fff"/><rect width="2" height="9" x="91.99" y="26.95" fill="#fff"/><rect width="2" height="6" x="100.99" y="26.95" fill="#fff"/><rect width="2" height="9" x="109.99" y="26.95" fill="#fff"/><rect width="2" height="12" x="112.99" y="80.95" fill="#fff"/><rect width="2" height="6" x="101.99" y="86.95" fill="#fff"/><rect width="2" height="6" x="106.99" y="86.95" fill="#fff"/><rect width="2" height="6" x="91.99" y="86.95" fill="#fff"/><rect width="2" height="6" x="96.99" y="86.95" fill="#fff"/><rect width="2" height="6" x="79.99" y="86.95" fill="#fff"/><rect width="2" height="6" x="74.99" y="86.95" fill="#fff"/><rect width="2" height="18" x="85.99" y="74.95" fill="#fff"/><rect width="2" height="6" x="64.99" y="86.95" fill="#fff"/><rect width="2" height="6" x="69.99" y="86.95" fill="#fff"/><rect width="2" height="12" x="58.99" y="80.95" fill="#fff"/><rect width="2" height="6" x="47.99" y="86.95" fill="#fff"/><rect width="2" height="6" x="37.99" y="86.95" fill="#fff"/><rect width="2" height="6" x="42.99" y="86.95" fill="#fff"/><rect width="2" height="6" x="52.99" y="86.95" fill="#fff"/><rect width="2" height="18" x="31.99" y="74.95" fill="#fff"/><rect width="2" height="6" x="15.99" y="86.95" fill="#fff"/><rect width="2" height="6" x="20.99" y="86.95" fill="#fff"/><rect width="2" height="6" x="25.99" y="86.95" fill="#fff"/><rect width="2" height="6" x="10.99" y="86.95" fill="#fff"/><rect width="2" height="12" x="4.99" y="80.95" fill="#fff"/><circle cx="111.99" cy="59.95" r="4" fill="#fc0"/><circle cx="7" cy="59.95" r="4" fill="#fc0"/></svg>