<svg xmlns="http://www.w3.org/2000/svg" data-name="Layer 1" viewBox="0 0 120 120"><defs><linearGradient id="a" x1="-715.122" x2="-715.122" y1="-427.889" y2="-425.889" gradientTransform="matrix(38 0 0 -38 27234.639 -16161.768)" gradientUnits="userSpaceOnUse"><stop offset="0" stop-color="#fd355a"/><stop offset="1" stop-color="#fd5163"/></linearGradient></defs><path fill="#fff" d="M26,0H94a25.94821,25.94821,0,0,1,26,26V94a25.94821,25.94821,0,0,1-26,26H26A25.94821,25.94821,0,0,1,0,94V26A26.012,26.012,0,0,1,26,0Z"/><path fill="url(#a)" fill-rule="evenodd" d="M25.7,22H41.1a2.60916,2.60916,0,0,1,1.7.7L97.3,76.5a2.342,2.342,0,0,1,.7,1.7V94.3A3.69143,3.69143,0,0,1,94.3,98H79a2.60916,2.60916,0,0,1-1.7-.7L22.8,43.5a2.342,2.342,0,0,1-.7-1.7V25.7A3.54819,3.54819,0,0,1,25.7,22Zm38,0H94.3A3.69143,3.69143,0,0,1,98,25.7V57.5A74.52925,74.52925,0,0,0,84,37,76.43612,76.43612,0,0,0,63.7,22ZM56.3,98H25.7A3.69143,3.69143,0,0,1,22,94.3V62.5A73.84421,73.84421,0,0,0,36,83,80.406,80.406,0,0,0,56.3,98Z"/></svg>