<svg xmlns="http://www.w3.org/2000/svg" data-name="Layer 1" viewBox="0 0 120 120"><defs><clipPath id="a"><path fill="none" d="M94,120H26A25.9482,25.9482,0,0,1,0,94V26A25.9482,25.9482,0,0,1,26,0H94a25.9482,25.9482,0,0,1,26,26V94A25.9482,25.9482,0,0,1,94,120Z" clip-rule="evenodd"/></clipPath><linearGradient id="b" x1="-329.169" x2="-329.169" y1="-658.399" y2="-660.399" gradientTransform="matrix(80 0 0 -15 26395.5 -9876)" gradientUnits="userSpaceOnUse"><stop offset="0" stop-color="#ffdf60"/><stop offset="1" stop-color="#ffcd01"/></linearGradient><mask id="c" width="120" height="120" x=".008" y="-.012" maskUnits="userSpaceOnUse"><path fill="#fff" fill-rule="evenodd" d="M120.00837,82.61991c0,1.42658,0,2.85316-.00836,4.2818-.00628,1.20122-.02092,2.40243-.05438,3.60365a51.69821,51.69821,0,0,1-.69853,7.8441,26.18057,26.18057,0,0,1-2.48666,7.46161,25.07455,25.07455,0,0,1-4.66589,6.35136,25.3596,25.3596,0,0,1-6.42685,4.61466,26.92859,26.92859,0,0,1-7.54364,2.45826,53.50543,53.50543,0,0,1-7.93683.69054c-5.09044.062-6.5335.062-7.97656.062H37.80816c-5.54637-.01654-6.76146-.02894-7.97656-.062a53.50543,53.50543,0,0,1-7.93683-.69054,26.92859,26.92859,0,0,1-7.54364-2.45826,25.23224,25.23224,0,0,1-11.09483-10.966A26.31082,26.31082,0,0,1,.76964,98.34946a51.69556,51.69556,0,0,1-.69644-7.8441C.03974,89.30414.0251,88.10293.01883,86.90171c-.01046-1.42864-.01046-2.85522-.01046-4.2818v-45.264c0-1.42658,0-2.85522.01046-4.27972C.0251,31.87292.03974,30.6717.0732,29.47048a51.72245,51.72245,0,0,1,.69644-7.84616A26.29784,26.29784,0,0,1,3.2563,14.16477a25.23224,25.23224,0,0,1,11.09483-10.966A26.92859,26.92859,0,0,1,21.89477.74049,53.50677,53.50677,0,0,1,29.8316.05c5.09044-.062,6.5335-.062,7.97656-.062H81.02694l-15.39472.0062,16.57845-.0062c5.54427.01654,6.75938.029,7.97656.062a53.50677,53.50677,0,0,1,7.93683.69054,26.92859,26.92859,0,0,1,7.54364,2.45826,25.30883,25.30883,0,0,1,6.42685,4.61466,25.00207,25.00207,0,0,1,4.66589,6.35136,26.16766,26.16766,0,0,1,2.48666,7.45955,51.7251,51.7251,0,0,1,.69853,7.84616c.03346,1.20122.0481,2.40244.05438,3.60573.00836,1.4245.00836,2.85314.00836,4.27972v45.264Z"/></mask><linearGradient id="d" x1="60" x2="60" y1="29.988" y2="32.988" gradientUnits="userSpaceOnUse"><stop offset="0" stop-opacity=".3"/><stop offset="1" stop-color="#fff" stop-opacity="0"/></linearGradient></defs><path fill="#fff" fill-rule="evenodd" d="M94,120H26A25.9482,25.9482,0,0,1,0,94V26A25.9482,25.9482,0,0,1,26,0H94a25.9482,25.9482,0,0,1,26,26V94A25.9482,25.9482,0,0,1,94,120Z"/><g clip-path="url(#a)"><rect width="160" height="30" x="-17.992" y="-.012" fill="url(#b)"/></g><g clip-path="url(#a)"><g mask="url(#c)"><rect width="120" height="2" x=".008" y="58.988" fill="#c7c7cc"/></g><g mask="url(#c)"><rect width="120" height="2" x=".008" y="88.988" fill="#c7c7cc" data-name="Separator"/></g><circle cx="7.5" cy="36.488" r="1.8" fill="#c7c7cc"/><circle cx="14.5" cy="36.488" r="1.8" fill="#c7c7cc"/><circle cx="21.5" cy="36.488" r="1.8" fill="#c7c7cc"/><circle cx=".5" cy="36.488" r="1.8" fill="#c7c7cc"/><circle cx="35.5" cy="36.488" r="1.8" fill="#c7c7cc"/><circle cx="42.5" cy="36.488" r="1.8" fill="#c7c7cc"/><circle cx="49.5" cy="36.488" r="1.8" fill="#c7c7cc"/><circle cx="28.5" cy="36.488" r="1.8" fill="#c7c7cc"/><circle cx="63.5" cy="36.488" r="1.8" fill="#c7c7cc"/><circle cx="70.5" cy="36.488" r="1.8" fill="#c7c7cc"/><circle cx="77.5" cy="36.488" r="1.8" fill="#c7c7cc"/><circle cx="56.5" cy="36.488" r="1.8" fill="#c7c7cc"/><circle cx="91.5" cy="36.488" r="1.8" fill="#c7c7cc"/><circle cx="98.5" cy="36.488" r="1.8" fill="#c7c7cc"/><circle cx="105.5" cy="36.488" r="1.8" fill="#c7c7cc"/><circle cx="84.5" cy="36.488" r="1.8" fill="#c7c7cc"/><circle cx="112.5" cy="36.488" r="1.8" fill="#c7c7cc"/><circle cx="119.5" cy="36.488" r="1.8" fill="#c7c7cc"/><rect width="120" height="3" y="29.988" fill="url(#d)"/></g></svg>