<svg xmlns="http://www.w3.org/2000/svg" xmlns:xlink="http://www.w3.org/1999/xlink" viewBox="0 0 120 120"><defs><linearGradient id="a" x1="-556.301" x2="-554.295" y1="-1250.444" y2="-1250.444" gradientTransform="matrix(24.5 0 0 -16 13637.007 -19946.899)" gradientUnits="userSpaceOnUse"><stop offset="0" stop-color="#fff" stop-opacity="0"/><stop offset="1"/></linearGradient><linearGradient id="b" x1="-553.165" x2="-555.171" y1="-1250.444" y2="-1250.444" gradientTransform="matrix(24.5 0 0 -16 13664.507 -19946.899)" xlink:href="#a"/><linearGradient id="c" x1="-633.471" x2="-635.478" y1="-1243.652" y2="-1243.652" gradientTransform="scale(16 24.5) rotate(-90 -936.529 303.386)" xlink:href="#a"/><linearGradient id="d" x1="-530.017" x2="-532.024" y1="-1099.989" y2="-1099.989" gradientTransform="matrix(0 24.5 16 0 17659.617 13097.8)" xlink:href="#a"/><linearGradient id="e" x1="-660.734" x2="-662.741" y1="-1172.127" y2="-1172.127" gradientTransform="rotate(135 -11961.822 6031.274) scale(24.5 -16)" xlink:href="#a"/><linearGradient id="f" x1="-521.24" x2="-523.247" y1="-1182.557" y2="-1182.557" gradientTransform="rotate(-45 16385.52 25040.963) scale(24.5 -16)" xlink:href="#a"/><linearGradient id="g" x1="-581.162" x2="-583.168" y1="-1264.707" y2="-1264.707" gradientTransform="rotate(45 -31468.932 -7174.832) scale(24.5 -16)" xlink:href="#a"/><linearGradient id="h" x1="-574.382" x2="-576.358" y1="-1051.096" y2="-1051.117" gradientTransform="rotate(-135 -3561.405 11376.468) scale(24.5 -16)" xlink:href="#a"/><linearGradient id="i" x1="-556.304" x2="-554.297" y1="-1250.444" y2="-1250.444" xlink:href="#a"/><linearGradient id="j" x1="-553.167" x2="-555.174" y1="-1250.444" y2="-1250.444" gradientTransform="matrix(24.5 0 0 -16 13664.507 -19946.899)" xlink:href="#a"/><linearGradient id="k" x1="-521.243" x2="-523.249" y1="-1182.566" y2="-1182.566" gradientTransform="rotate(-45 16385.52 25040.963) scale(24.5 -16)" xlink:href="#a"/><linearGradient id="l" x1="-581.164" x2="-583.171" y1="-1264.698" y2="-1264.698" gradientTransform="rotate(45 -31468.932 -7174.832) scale(24.5 -16)" xlink:href="#a"/><linearGradient id="m" x1="-574.38" x2="-576.356" y1="-1051.096" y2="-1051.117" gradientTransform="rotate(-135 -3561.405 11376.468) scale(24.5 -16)" xlink:href="#a"/></defs><g data-name="Layer 1"><path fill="#fff" fill-rule="evenodd" d="M94,120H26A25.94821,25.94821,0,0,1,0,94V26A25.94821,25.94821,0,0,1,26,0H94a25.94821,25.94821,0,0,1,26,26V94A25.94821,25.94821,0,0,1,94,120Z"/><path fill="url(#a)" fill-opacity=".25" fill-rule="evenodd" d="M23.67916,44.14749H40.73593A16.1006,16.1006,0,0,1,56.78936,60.20093h0A16.1006,16.1006,0,0,1,40.73593,76.25436H23.67916A16.10061,16.10061,0,0,1,7.62572,60.20093h0A16.10061,16.10061,0,0,1,23.67916,44.14749Z"/><path fill="url(#b)" fill-opacity=".25" fill-rule="evenodd" d="M78.86283,44.14749H95.91961A16.10061,16.10061,0,0,1,111.973,60.20093h0A16.10061,16.10061,0,0,1,95.91961,76.25436H78.86283A16.10061,16.10061,0,0,1,62.8094,60.20093h0A16.10061,16.10061,0,0,1,78.86283,44.14749Z"/><path fill="url(#c)" fill-opacity=".25" fill-rule="evenodd" d="M43.746,41.13747V24.08076A16.10056,16.10056,0,0,1,59.79938,8.02733h0A16.10056,16.10056,0,0,1,75.85281,24.08076V41.13753A16.1006,16.1006,0,0,1,59.79938,57.191h0A16.10069,16.10069,0,0,1,43.746,41.13747Z"/><path fill="url(#d)" fill-opacity=".25" fill-rule="evenodd" d="M75.85281,79.26438V96.32115a16.1006,16.1006,0,0,1-16.05343,16.05343h0A16.1006,16.1006,0,0,1,43.746,96.32115V79.26438A16.1006,16.1006,0,0,1,59.79938,63.21094h0A16.1006,16.1006,0,0,1,75.85281,79.26438Z"/><path fill="url(#e)" fill-opacity=".25" fill-rule="evenodd" d="M34.91651,57.99357,22.87644,45.95349a16.10878,16.10878,0,0,1,0-22.67545h0a16.10894,16.10894,0,0,1,22.67557,0L57.59208,35.31812a16.10878,16.10878,0,0,1,0,22.67545h0A15.75356,15.75356,0,0,1,34.91651,57.99357Z"/><path fill="url(#f)" fill-opacity=".25" fill-rule="evenodd" d="M84.68225,62.40828,96.72233,74.44836a16.1088,16.1088,0,0,1,0,22.67545h0a16.10883,16.10883,0,0,1-22.67558,0L62.00668,85.08373a16.10878,16.10878,0,0,1,0-22.67545h0A15.75315,15.75315,0,0,1,84.68225,62.40828Z"/><path fill="url(#g)" fill-opacity=".25" fill-rule="evenodd" d="M62.00668,35.31812,74.04675,23.278a16.109,16.109,0,0,1,22.67558,0h0a16.1088,16.1088,0,0,1,0,22.67545L84.68225,57.99357a16.10883,16.10883,0,0,1-22.67557,0h0A15.75361,15.75361,0,0,1,62.00668,35.31812Z"/><path fill="url(#h)" fill-opacity=".25" fill-rule="evenodd" d="M57.59208,85.08373,45.552,97.12381a16.10881,16.10881,0,0,1-22.67557,0h0a16.10878,16.10878,0,0,1,0-22.67545L34.91651,62.40828a16.10883,16.10883,0,0,1,22.67557,0h0A15.7532,15.7532,0,0,1,57.59208,85.08373Z"/><path fill="#d783a6" fill-rule="evenodd" style="mix-blend-mode:multiply" d="M23.67916,44.14749H40.73593A16.1006,16.1006,0,0,1,56.78936,60.20093h0A16.1006,16.1006,0,0,1,40.73593,76.25436H23.67916A16.10061,16.10061,0,0,1,7.62572,60.20093h0A16.10061,16.10061,0,0,1,23.67916,44.14749Z" data-name="path-2"/><path fill="#a3d063" fill-rule="evenodd" style="mix-blend-mode:multiply" d="M78.86283,44.14749H95.91961A16.10061,16.10061,0,0,1,111.973,60.20093h0A16.10061,16.10061,0,0,1,95.91961,76.25436H78.86283A16.10061,16.10061,0,0,1,62.8094,60.20093h0A16.10061,16.10061,0,0,1,78.86283,44.14749Z" data-name="path-4"/><path fill="#fbb230" fill-rule="evenodd" style="mix-blend-mode:multiply" d="M75.85281,24.08076V41.13753A16.1006,16.1006,0,0,1,59.79938,57.191h0A16.1006,16.1006,0,0,1,43.746,41.13753V24.08076A16.10056,16.10056,0,0,1,59.79938,8.02733h0A16.10056,16.10056,0,0,1,75.85281,24.08076Z" data-name="path-5"/><path fill="#79abdb" fill-rule="evenodd" style="mix-blend-mode:multiply" d="M75.85281,79.26438V96.32115a16.1006,16.1006,0,0,1-16.05343,16.05343h0A16.1006,16.1006,0,0,1,43.746,96.32115V79.26438A16.1006,16.1006,0,0,1,59.79938,63.21094h0A16.1006,16.1006,0,0,1,75.85281,79.26438Z" data-name="path-6"/><path fill="#f3775e" fill-rule="evenodd" style="mix-blend-mode:multiply" d="M45.552,23.278,57.59208,35.31812a16.10878,16.10878,0,0,1,0,22.67545h0a16.10883,16.10883,0,0,1-22.67557,0L22.87644,45.95349a16.10878,16.10878,0,0,1,0-22.67545h0A16.10894,16.10894,0,0,1,45.552,23.278Z" data-name="path-7"/><path fill="#6cbfaa" fill-rule="evenodd" style="mix-blend-mode:multiply" d="M84.68225,62.40828,96.72233,74.44836a16.1088,16.1088,0,0,1,0,22.67545h0a16.10883,16.10883,0,0,1-22.67558,0L62.00668,85.08373a16.10878,16.10878,0,0,1,0-22.67545h0A15.75315,15.75315,0,0,1,84.68225,62.40828Z" data-name="path-8"/><path fill="#ede12c" fill-rule="evenodd" style="mix-blend-mode:multiply" d="M96.72233,45.95349,84.68225,57.99357a16.10883,16.10883,0,0,1-22.67557,0h0a16.10878,16.10878,0,0,1,0-22.67545L74.04675,23.278a16.109,16.109,0,0,1,22.67558,0h0A16.1088,16.1088,0,0,1,96.72233,45.95349Z" data-name="path-9"/><path fill="#ac8dc1" fill-rule="evenodd" style="mix-blend-mode:multiply" d="M57.59208,85.08373,45.552,97.12381a16.10881,16.10881,0,0,1-22.67557,0h0a16.10878,16.10878,0,0,1,0-22.67545L34.91651,62.40828a16.10883,16.10883,0,0,1,22.67557,0h0A15.7532,15.7532,0,0,1,57.59208,85.08373Z" data-name="path-11"/><g style="mix-blend-mode:overlay"><path fill="url(#i)" fill-opacity=".25" fill-rule="evenodd" d="M23.67916,44.14749H40.73593A16.10056,16.10056,0,0,1,56.78936,60.20093h0A16.10056,16.10056,0,0,1,40.73593,76.25436H23.67916A16.10057,16.10057,0,0,1,7.62572,60.20093h0A16.10057,16.10057,0,0,1,23.67916,44.14749Z" data-name="path-2"/><path fill="url(#j)" fill-opacity=".25" fill-rule="evenodd" d="M78.86283,44.14749H95.91961A16.10057,16.10057,0,0,1,111.973,60.20093h0A16.10057,16.10057,0,0,1,95.91961,76.25436H78.86283A16.10057,16.10057,0,0,1,62.8094,60.20093h0A16.10057,16.10057,0,0,1,78.86283,44.14749Z" data-name="path-4"/><path fill="url(#c)" fill-opacity=".25" fill-rule="evenodd" d="M43.746,41.13747V24.0807A16.10056,16.10056,0,0,1,59.79938,8.02727h0A16.10056,16.10056,0,0,1,75.85281,24.0807V41.13747A16.10056,16.10056,0,0,1,59.79938,57.19091h0A16.10056,16.10056,0,0,1,43.746,41.13747Z" data-name="path-5"/><path fill="url(#d)" fill-opacity=".25" fill-rule="evenodd" d="M75.85281,79.26438V96.32115a16.10056,16.10056,0,0,1-16.05343,16.05343h0A16.10056,16.10056,0,0,1,43.746,96.32115V79.26438A16.10056,16.10056,0,0,1,59.79938,63.21094h0A16.10073,16.10073,0,0,1,75.85281,79.26438Z" data-name="path-6"/><path fill="url(#e)" fill-opacity=".25" fill-rule="evenodd" d="M34.91651,57.99363,22.87644,45.95355a16.10878,16.10878,0,0,1,0-22.67545h0a16.10894,16.10894,0,0,1,22.67557,0L57.59208,35.31818a16.10878,16.10878,0,0,1,0,22.67545h0A15.75376,15.75376,0,0,1,34.91651,57.99363Z" data-name="path-7"/><path fill="url(#k)" fill-opacity=".25" fill-rule="evenodd" d="M84.48139,62.40822,96.52146,74.4483a16.10878,16.10878,0,0,1,0,22.67545h0a16.10894,16.10894,0,0,1-22.67557,0L61.80582,85.08367a16.10878,16.10878,0,0,1,0-22.67545h0A15.75336,15.75336,0,0,1,84.48139,62.40822Z" data-name="path-8"/><path fill="url(#l)" fill-opacity=".25" fill-rule="evenodd" d="M61.80606,35.31805,73.84614,23.278a16.10892,16.10892,0,0,1,22.67557,0h0a16.1088,16.1088,0,0,1,0,22.67545L84.48163,57.9935a16.10892,16.10892,0,0,1-22.67557,0h0A16.10791,16.10791,0,0,1,61.80606,35.31805Z" data-name="path-9"/><path fill="url(#m)" fill-opacity=".25" fill-rule="evenodd" d="M57.59184,85.0838,45.55176,97.12387a16.10892,16.10892,0,0,1-22.67557,0h0a16.10878,16.10878,0,0,1,0-22.67545L34.91627,62.40835a16.10892,16.10892,0,0,1,22.67557,0h0A16.10834,16.10834,0,0,1,57.59184,85.0838Z" data-name="path-11"/></g><path fill="#d783a6" fill-rule="evenodd" style="mix-blend-mode:darken" d="M44.14719,44.54885A15.94146,15.94146,0,0,1,56.38788,56.78961,15.67046,15.67046,0,0,1,44.14719,44.54885Z"/><path fill="#d783a6" fill-rule="evenodd" style="mix-blend-mode:darken" d="M63.21064 63.6123A15.94129 15.94129 0 0 0 75.45133 75.85306 15.67006 15.67006 0 0 0 63.21064 63.6123zM63.21064 56.78961A15.94129 15.94129 0 0 1 75.45133 44.54885 15.94323 15.94323 0 0 1 63.21064 56.78961zM44.14719 75.85306A15.94127 15.94127 0 0 1 56.38788 63.6123 15.94324 15.94324 0 0 1 44.14719 75.85306zM37.52529 60.20093a16.16973 16.16973 0 0 1 17.458 0 16.16884 16.16884 0 0 1-17.458 0zM64.61546 60.20093a16.16977 16.16977 0 0 0 17.458 0 16.169 16.169 0 0 0-17.458 0zM59.79938 55.38491a16.17043 16.17043 0 0 1 0-17.45814 16.1695 16.1695 0 0 1 0 17.45814zM59.79938 82.47508a16.17043 16.17043 0 0 1 0-17.45814 16.1695 16.1695 0 0 1 0 17.45814z" data-name="Path"/></g></svg>