<svg xmlns="http://www.w3.org/2000/svg" data-name="Layer 1" viewBox="0 0 120 120"><defs><linearGradient id="a" x1="60" x2="60" y1="-104.13" y2="15.87" gradientTransform="translate(0 104)" gradientUnits="userSpaceOnUse"><stop offset="0" stop-color="#c873f5"/><stop offset="1" stop-color="#7b33bb"/></linearGradient></defs><path fill="url(#a)" fill-rule="evenodd" d="M94,120H26A25.9482,25.9482,0,0,1,0,94V26A25.9482,25.9482,0,0,1,26,0H94a25.9482,25.9482,0,0,1,26,26V94A25.9482,25.9482,0,0,1,94,120Z"/><path fill="#fff" d="M74.9,79.7l.5-4.4a8.85417,8.85417,0,0,0,0-2.3,23,23,0,1,0-30.8,0,17.63337,17.63337,0,0,0,0,2.3l.5,4.4a28,28,0,1,1,29.8,0ZM73.2,94.9l.6-5.5a37.125,37.125,0,1,0-27.6-.1l.6,5.5a41.84979,41.84979,0,1,1,26.4.1Z"/><circle cx="60" cy="52" r="10" fill="#fff"/><path fill="#fff" d="M55.9,66.5l-1.4.5a7.61676,7.61676,0,0,0-4.9,7.8l2.7,24.3A7.85757,7.85757,0,0,0,60,106a7.70934,7.70934,0,0,0,7.7-6.9l2.6-24.3A7.37888,7.37888,0,0,0,65.4,67l-1.3-.5A11.58079,11.58079,0,0,0,55.9,66.5Z"/></svg>