<svg xmlns="http://www.w3.org/2000/svg" data-name="Layer 1" viewBox="0 0 120 120"><path fill="#fff" d="M26,0H94a25.94821,25.94821,0,0,1,26,26V94a25.94821,25.94821,0,0,1-26,26H26A25.94822,25.94822,0,0,1,0,94V26A26.07645,26.07645,0,0,1,26,0Z"/><circle cx="21" cy="30" r="9" fill="none" stroke="#196aff"/><circle cx="21" cy="30" r="6" fill="#196aff"/><g data-name="Checkbox"><circle cx="21" cy="60" r="9" fill="none" stroke="#f22d22" data-name="Oval"/><circle cx="21" cy="60" r="6" fill="#f22d22" data-name="Oval-6"/></g><g data-name="Checkbox"><circle cx="21" cy="90" r="9" fill="none" stroke="#ff9500" data-name="Oval"/><circle cx="21" cy="90" r="6" fill="#ff9500" data-name="Oval-6"/></g><path fill="#c7c7cc" fill-rule="evenodd" d="M44,29h60a.94477.94477,0,0,1,1,1h0a.94477.94477,0,0,1-1,1H44a.94477.94477,0,0,1-1-1h0A1.07539,1.07539,0,0,1,44,29Z"/><path fill="#c7c7cc" fill-rule="evenodd" d="M44 59h60a.94477.94477 0 0 1 1 1h0a.94477.94477 0 0 1-1 1H44a.94477.94477 0 0 1-1-1h0A1.07539 1.07539 0 0 1 44 59zM44 89h60a.94477.94477 0 0 1 1 1h0a.94477.94477 0 0 1-1 1H44a.94477.94477 0 0 1-1-1h0A1.07539 1.07539 0 0 1 44 89z" data-name="Separator"/></svg>