<svg xmlns="http://www.w3.org/2000/svg" data-name="Layer 1" viewBox="0 0 120 120"><defs><clipPath id="a"><path fill="none" d="M94,120H26A25.9482,25.9482,0,0,1,0,94V26A25.9482,25.9482,0,0,1,26,0H94a25.9482,25.9482,0,0,1,26,26V94A25.9482,25.9482,0,0,1,94,120Z" clip-rule="evenodd"/></clipPath><linearGradient id="b" x1="-571.937" x2="-571.937" y1="-578.289" y2="-580.003" gradientTransform="matrix(64.0839 0 0 -41.6111 36710.626 -24014.936)" gradientUnits="userSpaceOnUse"><stop offset="0" stop-color="#414142"/><stop offset="1" stop-color="#1b1b1c"/></linearGradient></defs><path fill="#1a1a1b" fill-rule="evenodd" d="M94,120H26A25.9482,25.9482,0,0,1,0,94V26A25.9482,25.9482,0,0,1,26,0H94a25.9482,25.9482,0,0,1,26,26V94A25.9482,25.9482,0,0,1,94,120Z"/><g clip-path="url(#a)"><path fill="url(#b)" fill-rule="evenodd" d="M121.39993,41.4a17.86057,17.86057,0,0,0-6.8,3.6c-2.2,2.2-8.4,8.2-9.4,9.4-.6.8-2.4,6.2-5.4,16.4l-6.6-17.4-6,3.6-7.2-18.6-2.4,2-4.2,20.6-6.4,2.4-7,12.4-7-5L46.8,52,40,69.4l-6.4-6A39.5386,39.5386,0,0,1,26.8,70c-2.8,1.8-4.8,3.2-6.4,3.6s-4-1-7-2.6-4.2-3.6-6.4-4c-1.4-.2-5.6-.8-12.4-1.4l.8,56.2,127.4-.8Z"/><path fill="#fff" d="M-4.60043,122.80078a1.00037,1.00037,0,0,1-1-.98633l-.79981-56.20117a.99753.99753,0,0,1,.31934-.7461,1.03644,1.03644,0,0,1,.76855-.26367c6.75489.5957,11.00977,1.20117,12.40821,1.40039a8.364,8.364,0,0,1,3.81054,2.07031,18.69353,18.69353,0,0,0,2.96387,2.043l.72852.39063c2.29589,1.23242,4.46191,2.39453,5.55761,2.12109a21.0815,21.0815,0,0,0,4.998-2.75586l1.10449-.71484a38.68827,38.68827,0,0,0,6.58789-6.416,1.00238,1.00238,0,0,1,.70313-.34082,1.04891,1.04891,0,0,1,.7334.26953l5.32324,4.98926,6.26172-16.02441A.96258.96258,0,0,1,46.8273,51a1,1,0,0,1,.92188.68652l6.09863,18.49121,5.82812,4.16211,6.45313-11.43066a1.00515,1.00515,0,0,1,.51953-.44532l5.88184-2.206,4.08984-20.05762a.996.996,0,0,1,.33984-.56836l2.40039-2a1.00039,1.00039,0,0,1,1.57227.40723l6.77148,17.49219L92.6857,52.543a.9999.9999,0,0,1,1.44922.50293l5.54785,14.62793c3.75977-12.59765,4.44727-13.51367,4.71777-13.874.76758-.92285,3.93946-4.03906,6.73731-6.78809,1.1084-1.08984,2.10644-2.07031,2.75488-2.71875,1.4375-1.4375,3.85645-2.73046,7.19043-3.84082a1,1,0,0,1,1.31641.93067L123.8,120.98242A.99876.99876,0,0,1,122.80582,122l-127.40039.80078Zm.21582-56.10547.76953,54.09961,125.39746-.78906L120.424,42.80664a14.65238,14.65238,0,0,0-5.11719,2.90039c-.65136.65136-1.65332,1.63672-2.76757,2.73047-2.48926,2.44629-5.89844,5.79589-6.57032,6.60254-.17187.24511-1.15332,2.251-5.21,16.042a1.00208,1.00208,0,0,1-.9209.71875,1.02416,1.02416,0,0,1-.97265-.64453L92.68961,54.873,87.715,57.85742a.99973.99973,0,0,1-1.44727-.4961L79.57047,40.06054l-1.06055.88379L74.37906,61.20019a.99923.99923,0,0,1-.62793.73633L67.69254,64.209,60.87125,76.293a1.00083,1.00083,0,0,1-1.45215.32227l-7-5a1.00307,1.00307,0,0,1-.36817-.50195l-5.331-16.16211-5.78809,14.8125a.99645.99645,0,0,1-.71093.61133.98535.98535,0,0,1-.9043-.24414L33.66714,64.834a36.227,36.227,0,0,1-6.3125,5.99805l-1.11132.71875c-2.35547,1.52929-4.05664,2.63281-5.60059,3.01953-1.85254.45508-4.11523-.75781-6.99023-2.30078l-.72364-.38672a20.3499,20.3499,0,0,1-3.2705-2.2461,6.73956,6.73956,0,0,0-2.83692-1.65234C5.507,67.79687,1.67789,67.25195-4.38461,66.69531Z" data-name="Path-3"/><rect style="isolation:isolate" width="2" height="120" x="18.8" fill="#fff" opacity=".15"/><rect style="isolation:isolate" width="2" height="120" x="38.8" fill="#fff" data-name="Rectangle-20" opacity=".15"/><rect style="isolation:isolate" width="2" height="120" x="58.8" fill="#fff" data-name="Rectangle-20" opacity=".15"/><rect width="2" height="120" x="78.8" fill="#00afff" data-name="Rectangle-20"/><rect style="isolation:isolate" width="2" height="120" x="98.8" fill="#fff" data-name="Rectangle-20" opacity=".15"/><circle cx="79.8" cy="40" r="6" fill="#00afff" stroke="#1a1a1b" stroke-linecap="square" stroke-width="2"/></g></svg>