<svg xmlns="http://www.w3.org/2000/svg" data-name="Layer 1" viewBox="0 0 120 120"><defs><linearGradient id="a" x1="63.94" x2="55.98" y1="-.21" y2="121.47" gradientUnits="userSpaceOnUse"><stop offset="0" stop-color="#1a1a1b"/><stop offset="1" stop-color="#1a1a1b"/></linearGradient></defs><rect width="120" height="120" fill="url(#a)" rx="26"/><rect width="4" height="94" x="61" y="13" fill="#2aaef5"/><path fill="#fc3d39" d="M57.49 72.5A1.5 1.5 0 0 1 56 71V49a1.5 1.5 0 0 1 3 0V71A1.5 1.5 0 0 1 57.49 72.5zM52.49 74.5A1.5 1.5 0 0 1 51 73V47a1.5 1.5 0 0 1 3 0V73A1.5 1.5 0 0 1 52.49 74.5zM47.49 91.5A1.5 1.5 0 0 1 46 90V30a1.5 1.5 0 0 1 3 0V90A1.5 1.5 0 0 1 47.49 91.5zM37.49 99.5A1.5 1.5 0 0 1 36 98V22a1.5 1.5 0 0 1 3 0V98A1.5 1.5 0 0 1 37.49 99.5zM42.49 88.5A1.5 1.5 0 0 1 41 87V33a1.5 1.5 0 0 1 3 0V87A1.5 1.5 0 0 1 42.49 88.5zM32.49 82.5A1.5 1.5 0 0 1 31 81V39a1.5 1.5 0 0 1 3 0V81A1.5 1.5 0 0 1 32.49 82.5zM27.49 75.5A1.5 1.5 0 0 1 26 74V46a1.5 1.5 0 0 1 3 0V74A1.5 1.5 0 0 1 27.49 75.5zM22.49 65.5A1.5 1.5 0 0 1 21 64V56a1.5 1.5 0 0 1 3 0v8A1.5 1.5 0 0 1 22.49 65.5zM17.49 63.5A1.5 1.5 0 0 1 16 62V58a1.5 1.5 0 0 1 3 0v4A1.5 1.5 0 0 1 17.49 63.5zM12.49 62A1.5 1.5 0 0 1 11 60.5v-1a1.5 1.5 0 0 1 3 0v1A1.5 1.5 0 0 1 12.49 62zM2.49 62A1.5 1.5 0 0 1 1 60.5v-1a1.5 1.5 0 0 1 3 0v1A1.5 1.5 0 0 1 2.49 62zM7.49 62.5A1.5 1.5 0 0 1 6 61V59a1.5 1.5 0 0 1 3 0v2A1.5 1.5 0 0 1 7.49 62.5z"/><path fill="#fefefe" d="M87.49 64.5A1.5 1.5 0 0 1 86 63V57a1.5 1.5 0 0 1 3 0v6A1.5 1.5 0 0 1 87.49 64.5zM78.49 65.5A1.5 1.5 0 0 1 77 64V56a1.5 1.5 0 0 1 3 0v8A1.5 1.5 0 0 1 78.49 65.5z"/><path fill="#c7c7cc" d="M68.49,74.5A1.5,1.5,0,0,1,67,73V47a1.5,1.5,0,0,1,3,0V73A1.5,1.5,0,0,1,68.49,74.5Z"/><path fill="#fefefe" d="M73.49 68.5A1.5 1.5 0 0 1 72 67V53a1.5 1.5 0 0 1 3 0V67A1.5 1.5 0 0 1 73.49 68.5zM92.49 62.5A1.5 1.5 0 0 1 91 61V59a1.5 1.5 0 0 1 3 0v2A1.5 1.5 0 0 1 92.49 62.5zM83.49 63.5A1.5 1.5 0 0 1 82 62V58a1.5 1.5 0 0 1 3 0v4A1.5 1.5 0 0 1 83.49 63.5zM117.49 62a1.5 1.5 0 0 1-1.5-1.5v-1a1.5 1.5 0 0 1 3 0v1A1.5 1.5 0 0 1 117.49 62zM107.49 62a1.5 1.5 0 0 1-1.5-1.5v-1a1.5 1.5 0 0 1 3 0v1A1.5 1.5 0 0 1 107.49 62zM97.49 62A1.5 1.5 0 0 1 96 60.5v-1a1.5 1.5 0 0 1 3 0v1A1.5 1.5 0 0 1 97.49 62zM102.49 63.5A1.5 1.5 0 0 1 101 62V58a1.5 1.5 0 0 1 3 0v4A1.5 1.5 0 0 1 102.49 63.5zM112.49 62.5A1.5 1.5 0 0 1 111 61V59a1.5 1.5 0 0 1 3 0v2A1.5 1.5 0 0 1 112.49 62.5z"/><circle cx="62.99" cy="106" r="5" fill="#2aaef5"/><circle cx="62.99" cy="14" r="5" fill="#2aaef5"/></svg>