<svg xmlns="http://www.w3.org/2000/svg" data-name="Layer 1" viewBox="0 0 120 120"><path fill="#1e1e1f" d="M26,0H94a25.9482,25.9482,0,0,1,26,26V94a25.9482,25.9482,0,0,1-26,26H26A25.9482,25.9482,0,0,1,0,94V26A26.012,26.012,0,0,1,26,0Z"/><path fill="#fff" fill-rule="evenodd" d="M24,30H96a6.01764,6.01764,0,0,1,6,6V70a6.01764,6.01764,0,0,1-6,6H24a6.01764,6.01764,0,0,1-6-6V36A6.01764,6.01764,0,0,1,24,30Z"/><path fill="#d9d6cc" fill-rule="evenodd" d="M22,26H98a8.02352,8.02352,0,0,1,8,8V86a8.02352,8.02352,0,0,1-8,8H22a8.02352,8.02352,0,0,1-8-8V34A8.02352,8.02352,0,0,1,22,26Z" data-name="Wallet"/><path fill="#3b99c9" fill-rule="evenodd" d="M24,30H96a6.01764,6.01764,0,0,1,6,6V70a6.01764,6.01764,0,0,1-6,6H24a6.01764,6.01764,0,0,1-6-6V36A6.01764,6.01764,0,0,1,24,30Z" data-name="path-1"/><g data-name="Rectangle-19"><path fill-rule="evenodd" d="M24,37H96a6.01764,6.01764,0,0,1,6,6V55a6.01764,6.01764,0,0,1-6,6H24a6.01764,6.01764,0,0,1-6-6V43A6.01764,6.01764,0,0,1,24,37Z"/><path fill="#ffb003" fill-rule="evenodd" d="M24,37H96a6.01764,6.01764,0,0,1,6,6V55a6.01764,6.01764,0,0,1-6,6H24a6.01764,6.01764,0,0,1-6-6V43A6.01764,6.01764,0,0,1,24,37Z" data-name="path-3"/></g><g data-name="Rectangle-19"><path fill-rule="evenodd" d="M24,44H96a6.01764,6.01764,0,0,1,6,6V62a6.01764,6.01764,0,0,1-6,6H24a6.01764,6.01764,0,0,1-6-6V50A6.01764,6.01764,0,0,1,24,44Z"/><path fill="#50be3d" fill-rule="evenodd" d="M24,44H96a6.01764,6.01764,0,0,1,6,6V62a6.01764,6.01764,0,0,1-6,6H24a6.01764,6.01764,0,0,1-6-6V50A6.01764,6.01764,0,0,1,24,44Z" data-name="path-5"/></g><g data-name="Rectangle-19"><path fill-rule="evenodd" d="M24,51H96a6.01764,6.01764,0,0,1,6,6V69a6.01764,6.01764,0,0,1-6,6H24a6.01764,6.01764,0,0,1-6-6V57A6.01764,6.01764,0,0,1,24,51Z"/><path fill="#f26d5f" fill-rule="evenodd" d="M24,51H96a6.01764,6.01764,0,0,1,6,6V69a6.01764,6.01764,0,0,1-6,6H24a6.01764,6.01764,0,0,1-6-6V57A6.01764,6.01764,0,0,1,24,51Z" data-name="path-7"/></g><g><path fill-rule="evenodd" d="M14,58h92V86a8.02352,8.02352,0,0,1-8,8H22a8.02352,8.02352,0,0,1-8-8Zm27,0c9,0,10,11.5,19,11.5S70,58,79,58Z"/><path fill="#d9d6cc" fill-rule="evenodd" d="M14,58h92V86a8.02352,8.02352,0,0,1-8,8H22a8.02352,8.02352,0,0,1-8-8Zm27,0c9,0,10,11.5,19,11.5S70,58,79,58Z" data-name="path-9"/></g></svg>